<svg xmlns="http://www.w3.org/2000/svg" viewBox="0 0 320 464.736"><path fill="#2A2A2A" d="M128.62 318.018C99.6 368.372 69.43 414.852 40.272 464.738H36.73c29.31-48.913 58.48-101.573 88.94-145.85-.02.025 10.986-18.17 2.95-.87zm-47.91 65.64c-2.17-5.182-10.12 16.122-14.345 21.94 2.172 5.19 10.12-16.12 14.346-21.94zM28.08 464.736h2.78c13.125-19.9 27.133-39.356 30.484-54.434-10.398 20.468-22.02 36.812-33.264 54.434zm33.218 0h2.98c6.472-12.05 12.357-23.48 16.77-31.388-7.206 8.373-13.546 19.656-19.75 31.388zM24.27 442.223c.63 6.94 7.463-10.465 10.2-14.283-.632-6.95-7.466 10.464-10.2 14.283zM79.588 358.3c6.506-1.522 9.295-15.524 14.346-21.933-5-1.484-44.198 73.3-14.346 21.934zm64.908-19.314c-.63-6.956-7.467 10.455-10.2 14.276-7.946 14.675-15.886 29.354-23.83 44.03-13.73 21.02-26.812 44.214-39.884 67.443h4.023c19.69-34.256 39.676-67.52 58.495-104.697 3.798-7.02 7.597-14.038 11.396-21.052zm-47.363 18.907c-1.03-6.566-8.123 11.922-11.24 16.2 1.03 6.57 8.123-11.923 11.24-16.2zm-74.62 78.425c.63 6.947 7.464-10.467 10.204-14.277-.637-6.946-7.467 10.46-10.203 14.278zM69.59 276.154c24.068-25.71 54.846-56.104 71.988-87.27-23.148 31.956-49.213 54.085-71.988 87.27zm-6.424 107.918c-1.03-6.582-8.123 11.914-11.238 16.188 1.03 6.572 8.12-11.918 11.238-16.188zM9.92 464.156c.02.217.045.41.077.58h1.98c2.405-3.097 6.253-12.223 8.146-14.856-.635-6.95-7.467 10.464-10.203 14.276zm8.605-25.05c-4.883 9.565-10.153 17.832-15.563 25.63h2.84c7.268-9.923 13.876-20.057 12.723-25.63zm30.29-33.1c-.628-6.95-7.462 10.458-10.2 14.277.63 6.947 7.465-10.465 10.2-14.277zm51.76-4.168c-.634-6.947-7.464 10.467-10.2 14.277.63 6.95 7.46-10.457 10.2-14.277zm101.138-205.153c-.928.864-1.89 1.726-2.88 2.583 1.284-.784 2.364-1.715 2.88-2.583zm41.978 87.075c-1.026-6.574-8.12 11.916-11.24 16.193 1.03 6.567 8.124-11.922 11.24-16.193zm18.968-44.188c11.268-17.27 13.568-31.874 23.99-48.9-7.834 3.715-19.794 35.646-23.99 48.9zm-103.654 72.604c5.406.066 16.252-28.05 23.676-39.163-5.41-.06-16.25 28.048-23.676 39.163zM301.312 159.01c-1.98-2.927-20.277 27.66-12.594 27.836 2.28-8.713 6.75-18.068 12.594-27.836zM72.225 285.013C149.417 187.416 233.742 90.447 320 0v82.54c-3.39 1.907-7.185 3.995-9.543 4.69 2.264 2.303 6.59.07 9.543-1.26v279.587c-9.396 32.92-18.982 65.94-28.875 99.18h-60.028c1.476-5.984 2.644-11.877 3.397-17.646-4.008 5.388-7.68 11.317-11.097 17.647h-26.93c11.19-20.024 18.974-45.736 26.925-65.724-2.37-.82-2.105 1.337-1.035 1.91-12.36 22.204-17.845 42.36-27.68 63.813h-10.215c16.756-37.45 33.67-74.91 49.2-112.145 29.917-71.71 60.028-140.837 80.802-208.74-43.69 106.1-90.688 215.438-135.635 320.885h-8.036C218.496 358.16 273.682 238.9 311.672 139.865c-4.742-2.91-9.9 20.128-11.08 11.33 1.023-5.657 12.643-14.474 4.457-17.394-3.23 10.532-2.452-4.534-14.755 4.396-24.746 17.97-48.533 92.817-67.348 124.438-35.814 60.19-72.76 135.193-106.408 202.102H90.53c35.78-63.642 77.32-140.582 114.15-209.518 1.353-2.52 22.335-39.436 8.452-20.176-3.46 6.38-6.91 12.764-10.363 19.148-40.078 65.556-77.75 139.197-116.106 210.545h-6.67c48.494-85.047 106.166-182.308 133.61-244.29-7.08-4.01-12.63-2.854-17.544.405-50.046 81.048-100.407 161.017-149.91 243.886h-3.417c33.26-55.72 83.665-131.777 102.152-167.624 12.832-24.888-4.203 3.726-4.865-.157-.73-4.273 6.367-8.666 7.252-13.396.592-3.177-5.635-3.034-3.67-6.944-10.41-3.687-17.686 12.703-26.152 25.45-7.104 10.7-17.732 32.02-19.37 26.647.376-1.722 1.993-3.808.155-4.87l-3.105 5.742c-7.693 5.188 5.416-8.872.318-9.725-15.36 4.158-22.98 34.314-37.393 41.636 1.79-4.76 4.285-7.177 7.092-8.53-5.098-4.557-7.412.25-12.52-4.302 11.944-22.794 23.786-25.097 41.377-44.44-10.95-2.615-14.652 19.113-25.834 15.72 3.873-6.77 8.965-9.445 13.152-15.155-.18-7.44-13.28-11.038-9.097-19.777zm112.298 21.173c-18.268 23.188-41.754 75.54-62.012 110.002 18.267-23.18 41.756-75.538 62.013-110.002zm94.89-42.696c-21.987 37.604-41.585 96.957-53.946 131.69 20.77-44.727 33.478-87.053 53.945-131.69zm29.802-77.928c-6.69-.778-19.477 47.456-4.143 7.657 1.033-2.685 3.028-5.003 4.143-7.658zM154.438 242.88c-8.775 1.087-15.098 10.43-22.885 14.834 6.44 3.653 8.254-8.243 14.752-4.39 1.78-6.595 5.73-5.91 8.133-10.444zm64.435-4.734c-1.797-5.674-9.45 14.744-13.312 20.023 1.797 5.68 9.456-14.74 13.313-20.024zM272.35 121.06c11.557 11.946 28.543-27.702 39.55-18.202-.565-2.506.278-5.438 2.23-8.69-2.376.118-5.784 3.753-4.864-.157-5.55 4.742-11.07 9.574-16.105 16.034-1.833-1.055-.218-3.15.16-4.863-6.183 7.358-9.1 13.906-20.97 15.88zm-26.56 7.905c4.298.035 10.245 5.625 12.685-.57-1.75-.473-2.95.89-4.867-.158-1.984-3.22 2.08-2.578 2.23-8.693-4.022.88-7.192 4.62-10.047 9.42zm-27.813 46.82c3.35 3.294 11.08-4.887 9.73.316 10.495-10.275 43.925-37.713 69.126-59.123-20.162 11.11-31.455 14.494-42.66 23.943 5.938-2.934 5.193-1.232 4.703 5.026-8.936 2.17-13.805 2.662-20.965 15.876-5.502-2.676-7.77 7.046-19.933 13.964zm-50.07 42.207c-1.257-11.555 17.308-24.473 24.08-21.625 1.376-2.553 2.76-5.107 4.142-7.658-2.995-1.063-3.763 5.353-6.94 3.673-2.282-4.492 7.815-3.896 6.218-11.485-12.562 6.356-21.564 24.675-34.125 31.032-.812 2.92 3.934 4.187 6.623 6.062zm-19.057 16.914c.758 9.056 9.232-.854 14.438 5.336 19.152-23.602 37.457-30.7 49.35-50.023 1.44 1.23 2.207.23 2.953-.88.69-1.27 1.382-2.555 2.07-3.826-6.462-5.53-7.25 8.006-13.716 2.475-.135 8.22-7.443 6.298-12.994 10.294-.535 4.145 4.422 3.1 7.885.984-14.188 12.312-33.895 23.9-37.307 35.074-3.335-2.303-5.507 3.328-12.678.564zm1.105-34.056c-1.89-.952-2.756 1.54-3.984 2.793-7.528 7.072-14.038 17.584-22.167 22.656-3.22 11.815 19.765-16.786 26.152-25.45zM105.4 283.163c11.097 12.007 23.683-17.48 34.846-23.212-14.088-.577-21.924 19.868-34.846 23.213zm-4.705-5.017c1.888.958 2.756-1.544 3.986-2.796 1.82.53 1.4 1.725.88 2.95 1.406 2.94 6.396-14.8 3.986-2.794 6.17 1.062.564-7.427 6.22-11.482-5.616 2.723-10.582 7.606-15.07 14.122zm75.084 117.368c-10.18 22.848-21.458 46.023-32.812 69.223h3.594c13.09-28.662 26.89-58.33 43.566-91.156-6.507 1.524-9.296 15.524-14.35 21.934zm57.462-119.89c1.797 5.683 9.45-14.737 13.312-20.02-1.798-5.678-9.454 14.746-13.312 20.02zm-76.61 189.112h5.647c24.447-55.077 48.1-108.877 71.927-158.877-27.994 47.854-52.217 102.652-77.576 158.876zm-25.612 0h2.653c4.203-8.053 8.783-18.14 12.376-23.434-3.325-.89-9.387 12.194-15.03 23.434zm113.865-187.754c5.18-9.574 10.363-19.146 15.547-28.718-1.838-1.063-.22-3.147.152-4.867-.277-2.573-14.922 25.453-15.7 33.585zm-40.092 64.93c-2.172-5.186-10.123 16.12-14.35 21.93 2.172 5.193 10.125-16.112 14.35-21.93zm20.877-43.156c-2.172-5.182-10.12 16.117-14.35 21.938 2.176 5.18 10.127-16.114 14.35-21.938z"/></svg>