<svg xmlns="http://www.w3.org/2000/svg" viewBox="0 0 343.836 50.723"><linearGradient id="a" gradientUnits="userSpaceOnUse" y1="25.361" x2="343.836" y2="25.361"><stop offset="0" stop-color="#E7AE4A"/><stop offset=".291" stop-color="#DF912F"/><stop offset="1" stop-color="#D25B30"/></linearGradient><path fill="url(#a)" d="M7.83 43.734C1.552 38.107 0 30.73 0 24.584 0 20.25 1.488 12.68 7.247 6.924 11.127 3.04 17.017 0 26.98 0c2.587 0 6.21.193 9.38.776 2.458.453 4.53.84 6.6.97.71.065.84.325.84.712 0 .518-.194 1.294-.323 3.623-.13 2.136-.13 5.695-.194 6.665-.065.97-.194 1.36-.583 1.36-.453 0-.518-.455-.518-1.36 0-2.522-1.035-5.175-2.717-6.6C37.2 4.206 32.22 2.46 26.525 2.46c-8.603 0-12.615 2.523-14.88 4.723-4.722 4.53-5.822 10.288-5.822 16.887 0 12.357 9.51 23.68 23.355 23.68 4.853 0 8.67-.583 11.257-3.235 1.36-1.424 2.2-4.27 2.394-5.436.128-.71.258-.97.646-.97.324 0 .453.452.453.97 0 .453-.777 6.082-1.424 8.282-.39 1.23-.518 1.358-1.683 1.876-2.588 1.034-7.505 1.488-11.646 1.488-9.702 0-16.237-2.394-21.348-6.988zM73.362 7.44c12.81 0 22.514 7.828 22.514 20.638 0 12.293-9.122 22.45-22.838 22.45-15.593 0-22.257-11.71-22.257-21.61 0-8.862 6.86-21.478 22.58-21.478zm1.294 40.824c5.11 0 15.398-2.717 15.398-18.633 0-13.197-8.022-20.12-17.016-20.12-9.51 0-16.37 5.952-16.37 17.92 0 12.81 7.7 20.834 17.987 20.834zm38.296-14.3c0 8.09.13 11.388 1.165 12.358.905.906 3.105 1.295 7.57 1.295 2.976 0 5.498-.065 6.857-1.682.712-.843 1.165-2.006 1.36-3.107.064-.387.258-.71.582-.71.26 0 .388.26.388.84 0 .583-.388 3.884-.84 5.5-.39 1.294-.583 1.488-3.624 1.488-4.075 0-7.245-.065-9.897-.194-2.588-.064-4.53-.13-6.21-.13-.26 0-1.23 0-2.33.065-1.165.064-2.394.13-3.3.13-.582 0-.906-.13-.906-.454 0-.193.13-.45.453-.45.518 0 1.23-.132 1.747-.26 1.1-.26 1.23-1.295 1.488-2.912.323-2.265.323-6.6.323-11.904v-9.704c0-8.54 0-10.093-.13-11.84-.128-1.876-.452-2.782-2.328-3.04-.453-.065-1.424-.13-1.94-.13-.195 0-.454-.26-.454-.452 0-.325.26-.454.906-.454 2.588 0 6.146.13 6.47.13.26 0 4.53-.13 6.275-.13.583 0 .906.13.906.454 0 .193-.26.388-.453.388-.388 0-1.23.064-1.876.13-1.682.322-2.006 1.163-2.135 3.104-.066 1.747-.066 3.3-.066 11.84v9.833zm26.2-9.832c0-8.54 0-10.093-.13-11.84-.13-1.747-.453-2.782-2.33-3.04-.452-.065-1.423-.13-1.94-.13-.194 0-.453-.26-.453-.452 0-.325.26-.454.906-.454 2.588 0 6.017.13 6.534.13s4.076-.13 5.758-.13c.647 0 .97.13.97.454 0 .193-.258.452-.517.452-.387 0-.71 0-1.422.13-1.488.258-1.812 1.228-1.94 3.04-.13 1.747-.13 3.3-.13 11.84v7.7c0 7.955 1.746 11.256 4.205 13.455 2.782 2.523 5.24 2.977 8.475 2.977 3.494 0 6.858-1.553 8.8-3.88 2.652-3.17 3.234-7.7 3.234-13.33v-6.922c0-8.54-.065-10.093-.13-11.84-.065-1.747-.388-2.782-2.264-3.04-.453-.065-1.424-.13-1.94-.13-.26 0-.454-.26-.454-.452 0-.325.26-.454.906-.454 2.523 0 5.823.13 6.146.13.388 0 3.105-.13 4.787-.13.648 0 .906.13.906.454 0 .193-.194.452-.454.452-.388 0-.71 0-1.424.13-1.552.323-1.875 1.228-2.004 3.04-.13 1.747-.065 3.3-.065 11.84v5.888c0 5.95-.776 12.615-5.305 16.497-4.14 3.56-8.54 4.01-11.904 4.01-1.876 0-7.83-.128-11.84-3.88-2.782-2.59-4.98-6.405-4.98-14.428V24.13zm91.93 18.633c.193 1.94.582 4.917 2.912 5.693 1.617.517 3.105.517 3.688.517.258 0 .453.13.453.39 0 .323-.518.517-1.166.517-1.293 0-7.633-.064-9.703-.26-1.36-.13-1.618-.322-1.618-.58 0-.195.13-.39.387-.454.324-.063.39-.905.26-1.94l-2.718-27.95h-.13l-13.717 28.08c-1.164 2.394-1.487 2.91-2.005 2.91s-.842-.517-1.94-2.522c-1.49-2.72-5.24-9.77-6.665-12.745-1.682-3.493-6.275-12.745-7.246-15.01h-.258l-2.202 24.844c-.064.84-.064 1.877-.064 2.782 0 .843.518 1.358 1.36 1.553.97.258 1.81.324 2.198.324.194 0 .453.192.453.387 0 .39-.39.52-1.035.52-2.135 0-4.852-.195-5.306-.195-.517 0-3.233.194-4.786.194-.583 0-.97-.13-.97-.52 0-.193.257-.386.58-.386.454 0 .842-.066 1.683-.195 1.878-.325 1.942-2.33 2.2-4.4l4.14-35.91c.065-.583.324-.97.648-.97.387 0 .84.194 1.164.84l17.21 34.16 16.56-34.096c.26-.517.52-.904.907-.904s.71.452.84 1.487l3.883 33.838zm19.533-.453c.13 4.53.646 5.887 2.2 6.274 1.034.26 2.328.325 2.846.325.26 0 .452.193.452.452 0 .324-.387.453-1.035.453-3.235 0-5.5-.194-6.018-.194-.517 0-2.91.195-5.5.195-.58 0-.905-.064-.905-.453 0-.26.195-.45.453-.45.453 0 1.488-.067 2.33-.326 1.423-.388 1.617-1.876 1.617-6.857V10.22c0-2.2.323-2.782.775-2.782.647 0 1.618 1.1 2.2 1.68.905.907 9.187 9.706 17.985 18.763 5.63 5.823 11.71 12.357 13.457 14.17l-.582-27.562c-.064-3.558-.388-4.787-2.135-5.11-1.035-.194-2.328-.26-2.78-.26-.39 0-.454-.322-.454-.516 0-.323.453-.39 1.1-.39 2.588 0 5.305.13 5.952.13s2.522-.13 4.853-.13c.582 0 1.035.066 1.035.39 0 .194-.26.517-.646.517-.26 0-.713 0-1.36.13-1.876.39-2.005 1.488-2.005 4.788l-.13 32.22c0 3.622-.063 3.946-.452 3.946-.582 0-1.164-.453-4.334-3.363-.583-.52-8.8-8.604-14.816-14.88-6.6-6.924-13.004-13.652-14.75-15.593l.646 25.945zm55.375-8.476c0 5.305 0 9.64.26 11.905.194 1.618.39 2.652 2.07 2.912.842.13 2.07.26 2.59.26.322 0 .452.258.452.45 0 .26-.26.454-.906.454-3.17 0-6.857-.194-7.117-.194-.323 0-3.882.194-5.63.194-.582 0-.904-.13-.904-.453 0-.193.13-.45.452-.45.518 0 1.23-.132 1.747-.26 1.1-.26 1.293-1.295 1.488-2.912.258-2.265.322-6.6.322-11.904v-9.704c0-8.54 0-10.093-.13-11.84-.128-1.876-.58-2.717-1.81-2.976-.648-.13-1.36-.195-1.748-.195-.258 0-.453-.258-.453-.45 0-.326.26-.455.906-.455 1.877 0 5.436.13 5.758.13.26 0 3.947-.13 5.693-.13.648 0 .907.13.907.454 0 .192-.26.45-.453.45-.39 0-.775 0-1.424.13-1.553.324-1.875 1.1-2.005 3.04-.065 1.748-.065 3.3-.065 11.84v9.706zm15.202 15.204c-.775-.388-.84-.582-.84-2.07 0-2.718.258-4.917.322-5.823 0-.582.13-.905.453-.905.324 0 .518.194.518.647 0 .45 0 1.228.195 2.005.904 4.01 5.176 5.434 8.992 5.434 5.63 0 8.54-3.17 8.54-7.312 0-3.947-2.136-5.822-7.18-9.575l-2.59-1.94c-6.146-4.594-8.15-7.958-8.15-11.775 0-6.47 5.11-10.352 12.614-10.352 2.266 0 4.53.323 5.89.647 1.1.26 1.552.26 2.003.26.452 0 .583.062.583.387 0 .258-.26 2.07-.26 5.822 0 .84-.064 1.23-.453 1.23-.388 0-.453-.26-.518-.713-.064-.647-.518-2.136-.84-2.718-.39-.646-2.266-2.717-7.377-2.717-4.14 0-7.568 2.07-7.568 5.952 0 3.494 1.746 5.5 7.375 9.316l1.617 1.1c6.922 4.723 9.315 8.54 9.315 13.262 0 3.236-1.23 6.73-5.305 9.382-2.395 1.553-5.953 1.94-9.06 1.94-2.65 0-5.95-.387-8.278-1.487z"/></svg>